<svg width="42" height="42" viewBox="0 0 42 42" fill="none" xmlns="http://www.w3.org/2000/svg">
<rect width="42" height="42" rx="10" fill="#F7F8FC"/>
<path d="M21.0166 13.425C18.2583 13.425 16.0166 15.6666 16.0166 18.425V20.8333C16.0166 21.3416 15.8 22.1166 15.5416 22.55L14.5833 24.1416C13.9916 25.125 14.4 26.2166 15.4833 26.5833C19.075 27.7833 22.95 27.7833 26.5416 26.5833C27.55 26.25 27.9916 25.0583 27.4416 24.1416L26.4833 22.55C26.2333 22.1166 26.0166 21.3416 26.0166 20.8333V18.425C26.0166 15.675 23.7666 13.425 21.0166 13.425Z" stroke="#5C697B" stroke-width="1.2" stroke-miterlimit="10" stroke-linecap="round"/>
<path d="M22.5584 13.6669C22.3 13.5919 22.0334 13.5335 21.7584 13.5002C20.9584 13.4002 20.1917 13.4585 19.475 13.6669C19.7167 13.0502 20.3167 12.6169 21.0167 12.6169C21.7167 12.6169 22.3167 13.0502 22.5584 13.6669Z" stroke="#5C697B" stroke-width="1.2" stroke-miterlimit="10" stroke-linecap="round" stroke-linejoin="round"/>
<path d="M23.5167 26.8831C23.5167 28.2581 22.3917 29.3831 21.0167 29.3831C20.3334 29.3831 19.7001 29.0998 19.2501 28.6498C18.8001 28.1998 18.5167 27.5665 18.5167 26.8831" stroke="#5C697B" stroke-width="1.2" stroke-miterlimit="10"/>
<circle cx="26" cy="15.1668" r="3.1" fill="#EC5252" stroke="#F7F8FC" stroke-width="1.2"/>
</svg>
